<svg xmlns="http://www.w3.org/2000/svg" width="256" height="256" viewBox="0 0 184.32 184.32">
	<circle cx="64" cy="64" r="64" fill="#96ddff" transform="matrix(1.41785 0 0 1.41785 1.418 1.418)"/>
	<path fill="#83d3f2" d="M42.113 27.941a1.425 1.425 0 0 0 0-2.85H31.039a91.34 91.34 0 0 0-2.99 2.85h14.065Zm12.898-1.424c0 .786-.638 1.424-1.425 1.424H47.74a1.43 1.43 0 0 1-1.425-1.424c0-.783.641-1.427 1.425-1.427h5.846c.787 0 1.425.638 1.425 1.427Zm92.317 83.628c0-.788.638-1.426 1.425-1.426h22.697a1.43 1.43 0 0 1 1.425 1.426c0 .784-.64 1.425-1.425 1.425h-22.697a1.425 1.425 0 0 1-1.425-1.425Zm-2.213 0c0 .787-.638 1.425-1.425 1.425h-6.817a1.425 1.425 0 0 1 0-2.85h6.817c.787 0 1.425.638 1.425 1.425ZM24.938 73.181c0-.787.639-1.425 1.425-1.425h15.254c.784 0 1.425.64 1.425 1.425 0 .784-.641 1.425-1.425 1.425H26.363a1.425 1.425 0 0 1-1.425-1.425Zm-2.213 0c0 .787-.638 1.425-1.425 1.425h-6.817a1.426 1.426 0 0 1 0-2.85H21.3c.787 0 1.425.638 1.425 1.425Zm34.543 102.757h6.413a1.427 1.427 0 0 0 1.425-1.425 1.427 1.427 0 0 0-1.425-1.425H51.133a90.331 90.331 0 0 0 6.135 2.85Zm24.98-2.85H69.55a1.427 1.427 0 0 0-1.425 1.425 1.427 1.427 0 0 0 1.425 1.425h12.698a1.43 1.43 0 0 0 1.425-1.427 1.43 1.43 0 0 0-1.425-1.425Zm37.275-15.723h18.078a1.427 1.427 0 0 1 1.424 1.425 1.427 1.427 0 0 1-1.425 1.425h-18.077a1.428 1.428 0 0 1-1.426-1.423c0-.784.64-1.427 1.425-1.427Zm23.206 1.427c0-.789.638-1.427 1.425-1.427h1.531a1.427 1.427 0 0 1 1.425 1.425 1.427 1.427 0 0 1-1.425 1.425h-1.531a1.425 1.425 0 0 1-1.425-1.423ZM107.206 8.045H89.13a1.425 1.425 0 0 0 0 2.85h18.077a1.43 1.43 0 0 0 1.425-1.425 1.43 1.43 0 0 0-1.425-1.425Zm31.427 22.651h-18.078a1.425 1.425 0 0 0 0 2.85h18.078c.784 0 1.425-.64 1.425-1.425a1.43 1.43 0 0 0-1.425-1.425ZM83.999 9.471c0-.787-.638-1.425-1.426-1.425H81.04a1.425 1.425 0 0 0 0 2.85h1.532c.786 0 1.426-.638 1.426-1.425ZM54.516 136.116l-18.063.725a1.425 1.425 0 0 0 .113 2.848l18.064-.726a1.43 1.43 0 0 0 1.368-1.48 1.429 1.429 0 0 0-1.482-1.367Zm-23.13 2.354a1.426 1.426 0 0 0-1.482-1.367l-1.531.062a1.425 1.425 0 0 0 .114 2.849l1.532-.063a1.426 1.426 0 0 0 1.366-1.481Zm124.882-85.063c0-.786.638-1.425 1.425-1.425h2.37a1.427 1.427 0 0 1 1.008 2.432 1.43 1.43 0 0 1-1.009.418h-2.37a1.425 1.425 0 0 1-1.424-1.425Zm10.415 1.427h8.183a91.27 91.27 0 0 0-1.339-2.85h-6.844a1.427 1.427 0 0 0-1.008 2.432c.268.267.631.418 1.008.418Z"/>
	<path fill="#83d3f2" d="M142.2 56.186v78.681a7.337 7.337 0 0 1-7.333 7.334h-78.68a7.336 7.336 0 0 1-7.335-7.334v-78.68a7.336 7.336 0 0 1 7.334-7.335h78.681a7.337 7.337 0 0 1 7.334 7.334Z"/>
	<path fill="#4a749b" d="M139.069 53.054v78.681a7.337 7.337 0 0 1-7.334 7.334h-78.68a7.336 7.336 0 0 1-7.334-7.334v-78.68a7.336 7.336 0 0 1 7.333-7.334h78.681a7.337 7.337 0 0 1 7.334 7.333Z"/>
	<path fill="#386384" d="M139.066 53.06v78.676a7.339 7.339 0 0 1-7.336 7.337H53.054a7.324 7.324 0 0 1-6.744-4.476c.875.382 1.85.592 2.86.592h65.405c11.38 0 20.608-9.227 20.608-20.608V49.177c0-1.024-.21-1.985-.58-2.86a7.314 7.314 0 0 1 4.463 6.744Z"/>
	<path fill="#fad553" d="M64.66 56.909v8.063c0 .81-.654 1.464-1.462 1.464h-8.065a1.463 1.463 0 0 1-1.462-1.462v-8.065c0-.808.653-1.463 1.462-1.463h8.064c.809 0 1.463.654 1.463 1.463Z"/>
	<path fill="#ededed" d="M80.682 56.909v8.063c0 .81-.655 1.464-1.463 1.464h-8.065a1.463 1.463 0 0 1-1.462-1.462v-8.065c0-.808.655-1.463 1.462-1.463h8.065c.808 0 1.463.654 1.463 1.463Z"/>
	<path fill="#fad553" d="M96.703 56.909v8.063c0 .81-.654 1.464-1.463 1.464h-8.063a1.462 1.462 0 0 1-1.464-1.462v-8.065c0-.808.655-1.463 1.463-1.463h8.064c.808 0 1.463.654 1.463 1.463Z"/>
	<path fill="#ededed" d="M112.724 56.909v8.063c0 .81-.653 1.464-1.461 1.464h-8.065a1.463 1.463 0 0 1-1.462-1.462v-8.065c0-.808.653-1.463 1.462-1.463h8.064a1.46 1.46 0 0 1 1.462 1.463Zm16.022 0v8.063c0 .81-.654 1.464-1.462 1.464h-8.065a1.463 1.463 0 0 1-1.462-1.462v-8.065c0-.808.653-1.463 1.462-1.463h8.065c.808 0 1.462.654 1.462 1.463ZM63.198 82.456h-8.065a1.461 1.461 0 0 1-1.462-1.461V72.93c0-.808.653-1.462 1.462-1.462h8.064c.809 0 1.462.654 1.462 1.462v8.065c0 .807-.653 1.462-1.461 1.462Z"/>
	<path fill="#fad553" d="M63.198 98.478h-8.065a1.462 1.462 0 0 1-1.462-1.462v-8.064a1.46 1.46 0 0 1 1.462-1.462h8.064a1.46 1.46 0 0 1 1.462 1.461v8.065c0 .808-.653 1.462-1.461 1.462Z"/>
	<path fill="#ededed" d="M63.198 114.5h-8.065a1.461 1.461 0 0 1-1.462-1.462v-8.064c0-.808.653-1.463 1.462-1.463h8.064a1.46 1.46 0 0 1 1.462 1.463v8.063a1.46 1.46 0 0 1-1.461 1.462Zm0 16.022h-8.065a1.463 1.463 0 0 1-1.462-1.462v-8.065c0-.808.653-1.463 1.462-1.463h8.064c.809 0 1.462.655 1.462 1.463v8.065c0 .807-.653 1.462-1.461 1.462Zm16.021-48.065h-8.065a1.463 1.463 0 0 1-1.462-1.462V72.93c0-.808.655-1.462 1.462-1.462h8.065c.808 0 1.463.654 1.463 1.462v8.065c0 .807-.655 1.462-1.463 1.462Z"/>
	<path fill="#fad553" d="M79.22 98.478h-8.066a1.462 1.462 0 0 1-1.462-1.462v-8.064c0-.808.655-1.462 1.462-1.462h8.065c.808 0 1.463.654 1.463 1.461v8.065c0 .808-.655 1.462-1.463 1.462Zm0 16.021h-8.066a1.461 1.461 0 0 1-1.462-1.46v-8.065c0-.808.655-1.463 1.462-1.463h8.065c.808 0 1.463.654 1.463 1.463v8.063c0 .809-.655 1.462-1.463 1.462Z"/>
	<path fill="#ededed" d="M79.22 130.522h-8.066a1.463 1.463 0 0 1-1.462-1.462v-8.065c0-.808.655-1.463 1.462-1.463h8.065c.808 0 1.463.655 1.463 1.463v8.065c0 .807-.655 1.462-1.463 1.462Z"/>
	<path fill="#fad553" d="M95.24 82.457h-8.063a1.461 1.461 0 0 1-1.462-1.462V72.93c0-.808.653-1.462 1.46-1.462h8.065c.808 0 1.463.654 1.463 1.462v8.065c0 .807-.654 1.462-1.463 1.462Z"/>
	<path fill="#ededed" d="M95.24 98.478h-8.063a1.46 1.46 0 0 1-1.462-1.462v-8.064a1.46 1.46 0 0 1 1.46-1.462h8.065c.808 0 1.463.654 1.463 1.461v8.065c0 .808-.654 1.462-1.463 1.462Z"/>
	<path fill="#fad553" d="M95.24 114.5h-8.063a1.46 1.46 0 0 1-1.462-1.462v-8.064c0-.808.653-1.463 1.46-1.463h8.065c.808 0 1.463.654 1.463 1.463v8.063a1.46 1.46 0 0 1-1.463 1.462Z"/>
	<path fill="#ededed" d="M95.24 130.522h-8.063a1.461 1.461 0 0 1-1.462-1.462v-8.065c0-.808.653-1.463 1.46-1.463h8.065c.808 0 1.463.655 1.463 1.463v8.065c0 .807-.654 1.462-1.463 1.462Z"/>
	<path fill="#fad553" d="M111.263 82.457h-8.065a1.463 1.463 0 0 1-1.462-1.462V72.93c0-.808.653-1.462 1.462-1.462h8.064c.807 0 1.462.654 1.462 1.462v8.065c0 .807-.653 1.462-1.461 1.462Zm0 16.021h-8.065a1.462 1.462 0 0 1-1.462-1.462v-8.064a1.46 1.46 0 0 1 1.462-1.462h8.064c.807 0 1.462.654 1.462 1.461v8.065c0 .808-.653 1.462-1.461 1.462Z"/>
	<path fill="#ededed" d="M111.263 114.5h-8.065a1.461 1.461 0 0 1-1.462-1.462v-8.064c0-.808.653-1.463 1.462-1.463h8.064c.807 0 1.462.654 1.462 1.463v8.063a1.46 1.46 0 0 1-1.461 1.462Z"/>
	<path fill="#fad553" d="M111.263 130.522h-8.065a1.463 1.463 0 0 1-1.462-1.462v-8.065c0-.808.653-1.463 1.462-1.463h8.064c.807 0 1.462.655 1.462 1.463v8.065c0 .807-.653 1.462-1.461 1.462Zm16.021-48.065h-8.065a1.463 1.463 0 0 1-1.462-1.462V72.93c0-.808.655-1.462 1.462-1.462h8.064c.809 0 1.463.654 1.463 1.462v8.065c0 .807-.654 1.462-1.462 1.462Z"/>
	<path fill="#ededed" d="M127.284 98.478h-8.065a1.462 1.462 0 0 1-1.462-1.462v-8.064c0-.808.655-1.462 1.462-1.462h8.064c.809 0 1.463.654 1.463 1.461v8.065c0 .808-.654 1.462-1.462 1.462Zm0 16.021h-8.065a1.461 1.461 0 0 1-1.462-1.46v-8.065c0-.808.655-1.463 1.462-1.463h8.064c.809 0 1.463.654 1.463 1.463v8.063c0 .809-.654 1.462-1.462 1.462Z"/>
	<path fill="#fad553" d="M127.284 130.522h-8.065a1.463 1.463 0 0 1-1.462-1.462v-8.065c0-.808.655-1.463 1.462-1.463h8.064c.809 0 1.463.655 1.463 1.463v8.065c0 .807-.654 1.462-1.462 1.462Z"/>
	<path fill="#6894af" d="M66.383 48.51c0 .63-.518 1.148-1.147 1.148h-8.63a1.152 1.152 0 0 1-1.147-1.147c0-.629.518-1.147 1.146-1.147h8.631c.629 0 1.147.518 1.147 1.147Zm16.583 0c0 .63-.518 1.148-1.146 1.148H69.39a1.155 1.155 0 0 1-1.159-1.147c0-.629.518-1.147 1.16-1.147H81.82c.628 0 1.146.518 1.146 1.147Zm21.343 0c0 .63-.518 1.148-1.147 1.148H86.468a1.152 1.152 0 0 1-1.147-1.147c0-.629.518-1.147 1.147-1.147h16.694c.63 0 1.147.518 1.147 1.147ZM49.237 64.868a1.152 1.152 0 0 1-1.147-1.146V55.09c0-.629.518-1.147 1.147-1.147s1.147.518 1.147 1.147v8.63c0 .63-.518 1.147-1.147 1.147Zm0 16.584a1.152 1.152 0 0 1-1.147-1.147V67.876c0-.641.518-1.16 1.147-1.16s1.147.519 1.147 1.16v12.428c0 .63-.518 1.147-1.147 1.147Zm0 21.343a1.152 1.152 0 0 1-1.147-1.147V84.953c0-.63.518-1.147 1.147-1.147s1.147.518 1.147 1.147v16.694c0 .629-.518 1.147-1.147 1.147Z"/>
</svg>