<svg xmlns="http://www.w3.org/2000/svg" width="256" height="256">
	<svg xmlns="http://www.w3.org/2000/svg" width="256" height="256" viewBox="0 0 130 130">
		<circle cx="65" cy="65" r="64" fill="#96ddff" class="color96DDFF svgShape"/>
		<path fill="#83d3f2" d="M29.702 19.707a1.005 1.005 0 1 0 0-2.01h-7.81a64.393 64.393 0 0 0-2.109 2.01h9.92zm9.097-1.005c0 .555-.45 1.005-1.005 1.005h-4.123c-.553 0-1.005-.453-1.005-1.005s.452-1.006 1.005-1.006h4.123c.555 0 1.005.45 1.005 1.006zm65.111 58.983c0-.556.45-1.006 1.005-1.006h16.008c.553 0 1.005.453 1.005 1.006s-.452 1.005-1.005 1.005h-16.008c-.555 0-1.005-.45-1.005-1.005zm-1.561 0c0 .555-.45 1.005-1.005 1.005h-4.808a1.005 1.005 0 1 1 0-2.01h4.808c.555 0 1.005.45 1.005 1.005zm-84.76-26.071c0-.555.45-1.005 1.005-1.005h10.758c.553 0 1.005.452 1.005 1.005 0 .553-.452 1.005-1.005 1.005H18.594c-.555 0-1.005-.45-1.005-1.005zm-1.561 0c0 .555-.45 1.005-1.005 1.005h-4.808a1.005 1.005 0 1 1 0-2.01h4.808c.555 0 1.005.45 1.005 1.005zm24.363 72.474h4.523a1.005 1.005 0 0 0 0-2.01h-8.85a63.635 63.635 0 0 0 4.327 2.01zm17.618-2.01h-8.956a1.005 1.005 0 0 0 0 2.01h8.956c.553 0 1.005-.453 1.005-1.006 0-.552-.452-1.005-1.005-1.005zm26.29-11.089h12.75a1.005 1.005 0 0 1 0 2.01h-12.75a1.008 1.008 0 0 1-1.006-1.004c0-.553.452-1.006 1.005-1.006zm16.367 1.006c0-.556.45-1.006 1.005-1.006h1.08a1.005 1.005 0 0 1 0 2.01h-1.08c-.555 0-1.005-.45-1.005-1.004zM75.612 5.674h-12.75a1.005 1.005 0 1 0 0 2.01h12.75c.552 0 1.005-.452 1.005-1.005s-.453-1.005-1.005-1.005zM97.777 21.65h-12.75a1.005 1.005 0 0 0 0 2.01h12.75c.553 0 1.005-.452 1.005-1.005 0-.552-.452-1.005-1.005-1.005zM59.244 6.68c0-.555-.45-1.005-1.006-1.005h-1.08a1.005 1.005 0 0 0 0 2.01h1.08c.555 0 1.006-.45 1.006-1.005zM38.45 96.002l-12.74.511a1.005 1.005 0 1 0 .08 2.009l12.74-.512c.553-.022.987-.492.965-1.044s-.492-.987-1.045-.964zm-16.314 1.66a1.005 1.005 0 0 0-1.045-.964l-1.08.044a1.005 1.005 0 0 0 .081 2.009l1.08-.044c.554-.022.986-.49.964-1.045zm88.079-59.994c0-.555.45-1.005 1.005-1.005h1.671a1.005 1.005 0 1 1 0 2.01h-1.671c-.555 0-1.005-.45-1.005-1.005zm7.346 1.006h5.771a63.383 63.383 0 0 0-.944-2.01h-4.827a1.005 1.005 0 1 0 0 2.01z" class="color83D3F2 svgShape"/>
		<path fill="#83d3f2" d="M105.395 35.633v63.814a5.948 5.948 0 0 1-5.948 5.948H35.633a5.948 5.948 0 0 1-5.948-5.948V35.633a5.948 5.948 0 0 1 5.948-5.948h63.814a5.948 5.948 0 0 1 5.948 5.948z" class="color83D3F2 svgShape"/>
		<path fill="#4a749b" d="M102.855 33.093v63.814a5.948 5.948 0 0 1-5.948 5.948H33.093a5.948 5.948 0 0 1-5.948-5.948V33.093a5.948 5.948 0 0 1 5.948-5.948h63.814a5.948 5.948 0 0 1 5.948 5.948z" class="color4A749B svgShape"/>
		<path fill="#386384" d="M102.853 33.098v63.81a5.95 5.95 0 0 1-5.95 5.95h-63.81a5.94 5.94 0 0 1-5.47-3.63c.71.31 1.5.48 2.32.48h53.046c9.23 0 16.714-7.483 16.714-16.714V29.948c0-.83-.17-1.61-.47-2.32 2.13.9 3.62 3.01 3.62 5.47z" class="color386384 svgShape"/>
		<path fill="#fad553" d="M42.506 36.219v6.54c0 .656-.531 1.187-1.186 1.187h-6.541a1.186 1.186 0 0 1-1.186-1.186v-6.541c0-.655.53-1.186 1.186-1.186h6.54c.656 0 1.187.53 1.187 1.186z" class="colorFAD553 svgShape"/>
		<path fill="#ededed" d="M55.5 36.219v6.54c0 .656-.531 1.187-1.186 1.187h-6.541a1.186 1.186 0 0 1-1.186-1.186v-6.541c0-.655.531-1.186 1.186-1.186h6.541c.655 0 1.186.53 1.186 1.186z" class="colorEDEDED svgShape"/>
		<path fill="#fad553" d="M68.494 36.219v6.54c0 .656-.53 1.187-1.186 1.187h-6.54a1.186 1.186 0 0 1-1.187-1.186v-6.541c0-.655.531-1.186 1.186-1.186h6.541c.655 0 1.186.53 1.186 1.186z" class="colorFAD553 svgShape"/>
		<path fill="#ededed" d="M81.488 36.219v6.54c0 .656-.53 1.187-1.185 1.187h-6.541a1.186 1.186 0 0 1-1.186-1.186v-6.541c0-.655.53-1.186 1.186-1.186h6.54c.656 0 1.186.53 1.186 1.186zm12.995 0v6.54c0 .656-.531 1.187-1.186 1.187h-6.541a1.186 1.186 0 0 1-1.186-1.186v-6.541c0-.655.53-1.186 1.186-1.186h6.541c.655 0 1.186.53 1.186 1.186zM41.32 56.939h-6.541c-.655 0-1.186-.53-1.186-1.185v-6.541c0-.655.53-1.186 1.186-1.186h6.54c.656 0 1.186.531 1.186 1.186v6.541c0 .655-.53 1.186-1.185 1.186z" class="colorEDEDED svgShape"/>
		<path fill="#fad553" d="M41.32 69.934h-6.541c-.655 0-1.186-.53-1.186-1.186v-6.54c0-.656.53-1.186 1.186-1.186h6.54c.656 0 1.186.53 1.186 1.185v6.541c0 .655-.53 1.186-1.185 1.186z" class="colorFAD553 svgShape"/>
		<path fill="#ededed" d="M41.32 82.928h-6.541c-.655 0-1.186-.53-1.186-1.185v-6.541c0-.655.53-1.186 1.186-1.186h6.54c.656 0 1.186.53 1.186 1.186v6.54c0 .656-.53 1.186-1.185 1.186zm0 12.995h-6.541a1.186 1.186 0 0 1-1.186-1.186v-6.541c0-.655.53-1.186 1.186-1.186h6.54c.656 0 1.186.531 1.186 1.186v6.541c0 .655-.53 1.186-1.185 1.186zM54.314 56.94h-6.541a1.186 1.186 0 0 1-1.186-1.186v-6.541c0-.655.531-1.186 1.186-1.186h6.541c.655 0 1.186.531 1.186 1.186v6.541c0 .655-.531 1.186-1.186 1.186z" class="colorEDEDED svgShape"/>
		<path fill="#fad553" d="M54.314 69.934h-6.541c-.655 0-1.186-.53-1.186-1.186v-6.54c0-.656.531-1.186 1.186-1.186h6.541c.655 0 1.186.53 1.186 1.185v6.541c0 .655-.531 1.186-1.186 1.186zm0 12.994h-6.541c-.655 0-1.186-.53-1.186-1.185v-6.541c0-.655.531-1.186 1.186-1.186h6.541c.655 0 1.186.53 1.186 1.186v6.54c0 .656-.531 1.186-1.186 1.186z" class="colorFAD553 svgShape"/>
		<path fill="#ededed" d="M54.314 95.923h-6.541a1.186 1.186 0 0 1-1.186-1.186v-6.541c0-.655.531-1.186 1.186-1.186h6.541c.655 0 1.186.531 1.186 1.186v6.541c0 .655-.531 1.186-1.186 1.186z" class="colorEDEDED svgShape"/>
		<path fill="#fad553" d="M67.308 56.94h-6.54a1.185 1.185 0 0 1-1.186-1.186v-6.541c0-.655.53-1.186 1.185-1.186h6.541c.655 0 1.186.531 1.186 1.186v6.541c0 .655-.53 1.186-1.186 1.186z" class="colorFAD553 svgShape"/>
		<path fill="#ededed" d="M67.308 69.934h-6.54c-.656 0-1.186-.53-1.186-1.186v-6.54c0-.656.53-1.186 1.185-1.186h6.541c.655 0 1.186.53 1.186 1.185v6.541c0 .655-.53 1.186-1.186 1.186z" class="colorEDEDED svgShape"/>
		<path fill="#fad553" d="M67.308 82.928h-6.54c-.656 0-1.186-.53-1.186-1.185v-6.541c0-.655.53-1.186 1.185-1.186h6.541c.655 0 1.186.53 1.186 1.186v6.54c0 .656-.53 1.186-1.186 1.186z" class="colorFAD553 svgShape"/>
		<path fill="#ededed" d="M67.308 95.923h-6.54a1.185 1.185 0 0 1-1.186-1.186v-6.541c0-.655.53-1.186 1.185-1.186h6.541c.655 0 1.186.531 1.186 1.186v6.541c0 .655-.53 1.186-1.186 1.186z" class="colorEDEDED svgShape"/>
		<path fill="#fad553" d="M80.303 56.94h-6.541a1.186 1.186 0 0 1-1.186-1.186v-6.541c0-.655.53-1.186 1.186-1.186h6.54c.655 0 1.186.531 1.186 1.186v6.541c0 .655-.53 1.186-1.185 1.186zm0 12.994h-6.541c-.655 0-1.186-.53-1.186-1.186v-6.54c0-.656.53-1.186 1.186-1.186h6.54c.655 0 1.186.53 1.186 1.185v6.541c0 .655-.53 1.186-1.185 1.186z" class="colorFAD553 svgShape"/>
		<path fill="#ededed" d="M80.303 82.928h-6.541c-.655 0-1.186-.53-1.186-1.185v-6.541c0-.655.53-1.186 1.186-1.186h6.54c.655 0 1.186.53 1.186 1.186v6.54c0 .656-.53 1.186-1.185 1.186z" class="colorEDEDED svgShape"/>
		<path fill="#fad553" d="M80.303 95.923h-6.541a1.186 1.186 0 0 1-1.186-1.186v-6.541c0-.655.53-1.186 1.186-1.186h6.54c.655 0 1.186.531 1.186 1.186v6.541c0 .655-.53 1.186-1.185 1.186zM93.297 56.94h-6.541a1.186 1.186 0 0 1-1.186-1.186v-6.541c0-.655.531-1.186 1.186-1.186h6.54c.656 0 1.187.531 1.187 1.186v6.541c0 .655-.531 1.186-1.186 1.186z" class="colorFAD553 svgShape"/>
		<path fill="#ededed" d="M93.297 69.934h-6.541c-.655 0-1.186-.53-1.186-1.186v-6.54c0-.656.531-1.186 1.186-1.186h6.54c.656 0 1.187.53 1.187 1.185v6.541c0 .655-.531 1.186-1.186 1.186zm0 12.994h-6.541c-.655 0-1.186-.53-1.186-1.185v-6.541c0-.655.531-1.186 1.186-1.186h6.54c.656 0 1.187.53 1.187 1.186v6.54c0 .656-.531 1.186-1.186 1.186z" class="colorEDEDED svgShape"/>
		<path fill="#fad553" d="M93.297 95.923h-6.541a1.186 1.186 0 0 1-1.186-1.186v-6.541c0-.655.531-1.186 1.186-1.186h6.54c.656 0 1.187.531 1.187 1.186v6.541c0 .655-.531 1.186-1.186 1.186z" class="colorFAD553 svgShape"/>
		<path fill="#6894af" d="M43.903 29.408c0 .51-.42.93-.93.93h-7c-.51 0-.93-.42-.93-.93s.42-.93.93-.93h7c.51 0 .93.42.93.93zm13.45 0c0 .51-.42.93-.93.93h-10.08c-.52 0-.94-.42-.94-.93s.42-.93.94-.93h10.08c.51 0 .93.42.93.93zm17.31 0c0 .51-.42.93-.93.93h-13.54c-.51 0-.93-.42-.93-.93s.42-.93.93-.93h13.54c.51 0 .93.42.93.93zM29.997 42.674c-.51 0-.93-.42-.93-.93v-7c0-.51.42-.93.93-.93s.93.42.93.93v7c0 .51-.42.93-.93.93zm0 13.45c-.51 0-.93-.42-.93-.93v-10.08c0-.52.42-.94.93-.94s.93.42.93.94v10.08c0 .51-.42.93-.93.93zm0 17.31c-.51 0-.93-.42-.93-.93v-13.54c0-.51.42-.93.93-.93s.93.42.93.93v13.54c0 .51-.42.93-.93.93z" class="color6894AF svgShape"/>
	</svg>
</svg>